<svg width="66" height="24" viewBox="0 0 66 24" fill="none" xmlns="http://www.w3.org/2000/svg">
<g clip-path="url(#clip0_21_8234)">
<path d="M62.607 15.1787C62.1634 14.6016 61.4537 14.2484 60.7173 14.2484C60.3536 14.2484 59.9987 14.3345 59.6528 14.4896C59.085 14.7652 58.4551 15.0151 57.7986 15.239V5.117H60.0076C60.8415 5.117 61.5158 4.4623 61.5158 3.65253V1.46445C61.5158 0.654687 60.8415 -1.52588e-05 60.0076 -1.52588e-05H50.0537C49.6811 -1.52588e-05 49.344 0.129202 49.0778 0.353179C48.8117 0.129202 48.4657 -1.52588e-05 48.102 -1.52588e-05H45.6002C44.9792 -1.52588e-05 44.4291 0.361794 44.1985 0.921736L41.1023 8.4422L38.0061 0.921736C37.7755 0.361794 37.2166 -1.52588e-05 36.6044 -1.52588e-05H34.1115C33.4905 -1.52588e-05 32.9405 0.361794 32.7098 0.921736L31.1041 4.81549V1.46445C31.1041 0.654687 30.4298 -1.52588e-05 29.5959 -1.52588e-05H27.0586C26.2247 -1.52588e-05 25.5505 0.654687 25.5505 1.46445V4.88441H22.9511V1.46445C22.9511 0.654687 22.2768 -1.52588e-05 21.4429 -1.52588e-05H18.9056C18.0717 -1.52588e-05 17.3975 0.654687 17.3975 1.46445V5.10838C11.5955 4.94471 3.38041 3.26488 2.95457 3.17874L1.89885 2.91169C1.77465 2.87723 1.64158 2.86 1.51738 2.86C0.940725 2.86 0.399559 3.18735 0.142284 3.71283C-0.15935 4.35892 0.0535681 5.12561 0.656835 5.53049L1.58835 6.15074C2.14726 6.52116 2.72391 6.86574 3.30056 7.19309C3.07877 7.30508 2.89247 7.47737 2.75052 7.69273C2.37792 8.26129 2.44889 8.99352 2.91908 9.48455L3.45138 10.0359C4.52484 11.1471 6.04188 12.112 7.96701 12.9131C7.92265 13.3266 8.06459 13.7573 8.3751 14.0761L8.90739 14.6188C10.797 16.5484 13.4141 17.944 16.6789 18.771C18.6395 19.2706 20.8042 19.5635 23.1285 19.6324C22.4631 20.4336 22.0639 21.0969 21.9752 21.2433L21.6381 21.8119C21.2921 22.3977 21.3986 23.1299 21.9042 23.5951C22.197 23.8622 22.5696 24.0086 22.9511 24.0086C23.2261 24.0086 23.5011 23.9397 23.7495 23.7846L24.3173 23.44C25.2754 22.8629 26.3134 22.4149 30.1992 22.4149C33.1268 22.4149 37.4384 22.6647 44.1985 23.2247C45.334 23.3194 46.4519 23.3711 47.5164 23.3711C52.0587 23.3711 58.3398 22.4666 62.4562 18.1335C63.2369 17.2979 63.299 16.0833 62.607 15.1787Z" fill="#BD0233"/>
<path d="M21.4428 8.53698H27.0585V14.0158C28.4868 13.9813 30.891 13.6971 31.6717 13.4042L32.55 11.2247H37.2963H38.0238L38.352 12.0517L39.0795 13.8521L39.2835 13.7574C39.8247 13.5162 40.3304 13.3094 40.8006 13.1199C40.978 13.051 41.1554 12.9821 41.324 12.9131C42.2555 12.5513 43.0451 12.2929 43.6927 12.112L44.0476 11.2333H49.5213L49.7254 11.7588C50.8964 11.9053 52.0054 12.2068 52.6796 12.7753L48.093 1.46448H45.6001L41.1022 12.3877L36.6043 1.46448H34.1114L29.5958 12.4221V1.46448H27.0585V6.3489H21.4339V1.46448H18.8967V13.8866C19.704 13.9641 20.5468 14.0158 21.4339 14.0503V8.53698H21.4428ZM46.78 4.37618L48.6696 9.11415H44.8992L46.78 4.37618ZM35.2913 4.37618L37.181 9.11415H33.4106L35.2913 4.37618Z" fill="#FCC608"/>
<path d="M53.771 15.4717V16.9706C53.7178 17.0223 55.634 16.738 56.3083 16.4451V3.65256H60.0254V1.46448H50.0538V3.65256H53.771V15.4717Z" fill="#FCC608"/>
<path d="M61.4004 16.0575C61.1875 15.7818 60.7705 15.5923 60.327 15.8077C55.5274 18.1078 48.4302 18.4782 46.2034 17.1602C45.8042 16.9276 45.609 16.6519 45.6002 16.359C45.5913 16.0661 45.68 15.8421 45.8663 15.6698C46.4696 15.0927 48.031 15.1271 49.4061 15.1702C50.9941 15.2133 52.3603 15.2477 52.5643 14.4552C52.653 14.0934 52.5821 13.7747 52.3337 13.4904C51.4465 12.4653 48.4657 12.2671 45.9639 12.4222C43.0718 12.6031 37.4915 15.3856 35.3269 16.5141C36.1608 15.5579 37.4649 13.8177 37.598 12.2068L37.6246 11.9139L37.3585 12.0431C24.2108 18.5643 10.3268 13.3956 10.1849 13.3439L9.47513 13.0683L10.0074 13.611C14.869 18.5643 23.9801 18.3403 27.2094 18.0905C24.9117 19.2879 23.3769 21.8551 23.297 21.9843L22.9599 22.5528L23.5277 22.2083C25.7456 20.8558 28.2562 20.4423 44.3315 21.7775C54.0015 22.5787 58.9164 19.7014 61.3472 17.1515C61.6754 16.7725 61.6133 16.3332 61.4004 16.0575Z" fill="#FCC608"/>
<path d="M18.0627 10.9576C12.0567 11.3453 4.80862 8.73508 4.74652 8.71785L4.01018 8.47665L4.54247 9.02797C7.79834 12.3962 15.2238 13.4817 18.0627 13.7832V10.9576Z" fill="#FCC608"/>
<path d="M18.0627 6.58152C11.9414 6.53845 2.67944 4.61742 2.5996 4.60019L1.50839 4.32452L2.43991 4.94477C8.01125 8.65762 14.7803 9.55353 18.0627 9.72582V6.58152Z" fill="#FCC608"/>
</g>
<defs>
<clipPath id="clip0_21_8234">
<rect width="63.0857" height="24" fill="white"/>
</clipPath>
</defs>
</svg>
